<mxfile host="Electron" agent="Mozilla/5.0 (Windows NT 10.0; Win64; x64) AppleWebKit/537.36 (KHTML, like Gecko) draw.io/24.7.17 Chrome/128.0.6613.36 Electron/32.0.1 Safari/537.36" version="24.7.17">
  <diagram name="Page-1" id="C0pqFvtej9mzMAWdVneW">
    <mxGraphModel dx="1422" dy="698" grid="1" gridSize="10" guides="1" tooltips="1" connect="1" arrows="1" fold="1" page="1" pageScale="1" pageWidth="1100" pageHeight="1700" math="0" shadow="0">
      <root>
        <mxCell id="0" />
        <mxCell id="1" parent="0" />
        <mxCell id="-hnQsiJzklWKLKV5hgJx-30" value="Container started when messages arrive" style="text;html=1;align=center;verticalAlign=middle;whiteSpace=wrap;rounded=0;" parent="1" vertex="1">
          <mxGeometry x="50" y="800" width="136" height="30" as="geometry" />
        </mxCell>
        <mxCell id="Ln4z_vQVc0nFOdkqBioS-44" value="Time" style="text;html=1;align=center;verticalAlign=middle;whiteSpace=wrap;rounded=0;fontSize=18;fontStyle=1" vertex="1" parent="1">
          <mxGeometry x="360" y="1000" width="136" height="30" as="geometry" />
        </mxCell>
        <mxCell id="Ln4z_vQVc0nFOdkqBioS-46" value="&lt;b style=&quot;font-size: 18px;&quot;&gt;&lt;font style=&quot;font-size: 18px;&quot;&gt;KEDA Controller&lt;/font&gt;&lt;/b&gt;" style="rounded=1;whiteSpace=wrap;html=1;fontSize=18;labelPosition=center;verticalLabelPosition=middle;align=center;verticalAlign=middle;fillColor=#2C2D42;strokeColor=#314354;fontColor=#FFFFFF;gradientColor=#419ECF;gradientDirection=south;" vertex="1" parent="1">
          <mxGeometry x="300" y="720" width="180" height="50" as="geometry" />
        </mxCell>
        <mxCell id="Ln4z_vQVc0nFOdkqBioS-56" value="" style="endArrow=classic;html=1;rounded=0;strokeWidth=4;endFill=1;" edge="1" parent="1">
          <mxGeometry width="50" height="50" relative="1" as="geometry">
            <mxPoint x="20" y="980" as="sourcePoint" />
            <mxPoint x="960" y="980" as="targetPoint" />
          </mxGeometry>
        </mxCell>
        <mxCell id="Ln4z_vQVc0nFOdkqBioS-57" value="" style="endArrow=none;html=1;rounded=0;strokeWidth=3;" edge="1" parent="1">
          <mxGeometry width="50" height="50" relative="1" as="geometry">
            <mxPoint x="360" y="990" as="sourcePoint" />
            <mxPoint x="360" y="970" as="targetPoint" />
          </mxGeometry>
        </mxCell>
        <mxCell id="Ln4z_vQVc0nFOdkqBioS-58" value="" style="endArrow=none;html=1;rounded=0;strokeWidth=3;" edge="1" parent="1">
          <mxGeometry width="50" height="50" relative="1" as="geometry">
            <mxPoint x="400" y="990" as="sourcePoint" />
            <mxPoint x="400" y="970" as="targetPoint" />
          </mxGeometry>
        </mxCell>
        <mxCell id="Ln4z_vQVc0nFOdkqBioS-59" value="" style="endArrow=none;html=1;rounded=0;strokeWidth=3;" edge="1" parent="1">
          <mxGeometry width="50" height="50" relative="1" as="geometry">
            <mxPoint x="440" y="990" as="sourcePoint" />
            <mxPoint x="440" y="970" as="targetPoint" />
          </mxGeometry>
        </mxCell>
        <mxCell id="Ln4z_vQVc0nFOdkqBioS-60" value="" style="endArrow=none;html=1;rounded=0;strokeWidth=3;" edge="1" parent="1">
          <mxGeometry width="50" height="50" relative="1" as="geometry">
            <mxPoint x="480" y="990" as="sourcePoint" />
            <mxPoint x="480" y="970" as="targetPoint" />
          </mxGeometry>
        </mxCell>
        <mxCell id="Ln4z_vQVc0nFOdkqBioS-61" value="" style="endArrow=none;html=1;rounded=0;strokeWidth=3;" edge="1" parent="1">
          <mxGeometry width="50" height="50" relative="1" as="geometry">
            <mxPoint x="200" y="990" as="sourcePoint" />
            <mxPoint x="200" y="970" as="targetPoint" />
          </mxGeometry>
        </mxCell>
        <mxCell id="Ln4z_vQVc0nFOdkqBioS-62" value="" style="endArrow=none;html=1;rounded=0;strokeWidth=3;" edge="1" parent="1">
          <mxGeometry width="50" height="50" relative="1" as="geometry">
            <mxPoint x="240" y="990" as="sourcePoint" />
            <mxPoint x="240" y="970" as="targetPoint" />
          </mxGeometry>
        </mxCell>
        <mxCell id="Ln4z_vQVc0nFOdkqBioS-63" value="" style="endArrow=none;html=1;rounded=0;strokeWidth=3;" edge="1" parent="1">
          <mxGeometry width="50" height="50" relative="1" as="geometry">
            <mxPoint x="280" y="990" as="sourcePoint" />
            <mxPoint x="280" y="970" as="targetPoint" />
          </mxGeometry>
        </mxCell>
        <mxCell id="Ln4z_vQVc0nFOdkqBioS-64" value="" style="endArrow=none;html=1;rounded=0;strokeWidth=3;" edge="1" parent="1">
          <mxGeometry width="50" height="50" relative="1" as="geometry">
            <mxPoint x="320" y="990" as="sourcePoint" />
            <mxPoint x="320" y="970" as="targetPoint" />
          </mxGeometry>
        </mxCell>
        <mxCell id="Ln4z_vQVc0nFOdkqBioS-66" value="" style="endArrow=none;html=1;rounded=0;strokeWidth=3;" edge="1" parent="1">
          <mxGeometry width="50" height="50" relative="1" as="geometry">
            <mxPoint x="40" y="990" as="sourcePoint" />
            <mxPoint x="40" y="970" as="targetPoint" />
          </mxGeometry>
        </mxCell>
        <mxCell id="Ln4z_vQVc0nFOdkqBioS-67" value="" style="endArrow=none;html=1;rounded=0;strokeWidth=3;" edge="1" parent="1">
          <mxGeometry width="50" height="50" relative="1" as="geometry">
            <mxPoint x="80" y="990" as="sourcePoint" />
            <mxPoint x="80" y="970" as="targetPoint" />
          </mxGeometry>
        </mxCell>
        <mxCell id="Ln4z_vQVc0nFOdkqBioS-68" value="" style="endArrow=none;html=1;rounded=0;strokeWidth=3;" edge="1" parent="1">
          <mxGeometry width="50" height="50" relative="1" as="geometry">
            <mxPoint x="120" y="990" as="sourcePoint" />
            <mxPoint x="120" y="970" as="targetPoint" />
          </mxGeometry>
        </mxCell>
        <mxCell id="Ln4z_vQVc0nFOdkqBioS-69" value="" style="endArrow=none;html=1;rounded=0;strokeWidth=3;" edge="1" parent="1">
          <mxGeometry width="50" height="50" relative="1" as="geometry">
            <mxPoint x="160" y="990" as="sourcePoint" />
            <mxPoint x="160" y="970" as="targetPoint" />
          </mxGeometry>
        </mxCell>
        <mxCell id="Ln4z_vQVc0nFOdkqBioS-70" value="" style="endArrow=none;html=1;rounded=0;strokeWidth=3;" edge="1" parent="1">
          <mxGeometry width="50" height="50" relative="1" as="geometry">
            <mxPoint x="839.62" y="990" as="sourcePoint" />
            <mxPoint x="839.62" y="970" as="targetPoint" />
          </mxGeometry>
        </mxCell>
        <mxCell id="Ln4z_vQVc0nFOdkqBioS-71" value="" style="endArrow=none;html=1;rounded=0;strokeWidth=3;" edge="1" parent="1">
          <mxGeometry width="50" height="50" relative="1" as="geometry">
            <mxPoint x="879.62" y="990" as="sourcePoint" />
            <mxPoint x="879.62" y="970" as="targetPoint" />
          </mxGeometry>
        </mxCell>
        <mxCell id="Ln4z_vQVc0nFOdkqBioS-72" value="" style="endArrow=none;html=1;rounded=0;strokeWidth=3;" edge="1" parent="1">
          <mxGeometry width="50" height="50" relative="1" as="geometry">
            <mxPoint x="919.62" y="990" as="sourcePoint" />
            <mxPoint x="919.62" y="970" as="targetPoint" />
          </mxGeometry>
        </mxCell>
        <mxCell id="Ln4z_vQVc0nFOdkqBioS-74" value="" style="endArrow=none;html=1;rounded=0;strokeWidth=3;" edge="1" parent="1">
          <mxGeometry width="50" height="50" relative="1" as="geometry">
            <mxPoint x="679.62" y="990" as="sourcePoint" />
            <mxPoint x="679.62" y="970" as="targetPoint" />
          </mxGeometry>
        </mxCell>
        <mxCell id="Ln4z_vQVc0nFOdkqBioS-75" value="" style="endArrow=none;html=1;rounded=0;strokeWidth=3;" edge="1" parent="1">
          <mxGeometry width="50" height="50" relative="1" as="geometry">
            <mxPoint x="719.62" y="990" as="sourcePoint" />
            <mxPoint x="719.62" y="970" as="targetPoint" />
          </mxGeometry>
        </mxCell>
        <mxCell id="Ln4z_vQVc0nFOdkqBioS-76" value="" style="endArrow=none;html=1;rounded=0;strokeWidth=3;" edge="1" parent="1">
          <mxGeometry width="50" height="50" relative="1" as="geometry">
            <mxPoint x="759.62" y="990" as="sourcePoint" />
            <mxPoint x="759.62" y="970" as="targetPoint" />
          </mxGeometry>
        </mxCell>
        <mxCell id="Ln4z_vQVc0nFOdkqBioS-77" value="" style="endArrow=none;html=1;rounded=0;strokeWidth=3;" edge="1" parent="1">
          <mxGeometry width="50" height="50" relative="1" as="geometry">
            <mxPoint x="799.62" y="990" as="sourcePoint" />
            <mxPoint x="799.62" y="970" as="targetPoint" />
          </mxGeometry>
        </mxCell>
        <mxCell id="Ln4z_vQVc0nFOdkqBioS-78" value="" style="endArrow=none;html=1;rounded=0;strokeWidth=3;" edge="1" parent="1">
          <mxGeometry width="50" height="50" relative="1" as="geometry">
            <mxPoint x="519.62" y="990" as="sourcePoint" />
            <mxPoint x="519.62" y="970" as="targetPoint" />
          </mxGeometry>
        </mxCell>
        <mxCell id="Ln4z_vQVc0nFOdkqBioS-79" value="" style="endArrow=none;html=1;rounded=0;strokeWidth=3;" edge="1" parent="1">
          <mxGeometry width="50" height="50" relative="1" as="geometry">
            <mxPoint x="559.62" y="990" as="sourcePoint" />
            <mxPoint x="559.62" y="970" as="targetPoint" />
          </mxGeometry>
        </mxCell>
        <mxCell id="Ln4z_vQVc0nFOdkqBioS-80" value="" style="endArrow=none;html=1;rounded=0;strokeWidth=3;" edge="1" parent="1">
          <mxGeometry width="50" height="50" relative="1" as="geometry">
            <mxPoint x="599.62" y="990" as="sourcePoint" />
            <mxPoint x="599.62" y="970" as="targetPoint" />
          </mxGeometry>
        </mxCell>
        <mxCell id="Ln4z_vQVc0nFOdkqBioS-81" value="" style="endArrow=none;html=1;rounded=0;strokeWidth=3;" edge="1" parent="1">
          <mxGeometry width="50" height="50" relative="1" as="geometry">
            <mxPoint x="639.62" y="990" as="sourcePoint" />
            <mxPoint x="639.62" y="970" as="targetPoint" />
          </mxGeometry>
        </mxCell>
        <mxCell id="Ln4z_vQVc0nFOdkqBioS-25" value="&lt;div style=&quot;font-size: 18px;&quot;&gt;Server Startup&lt;/div&gt;" style="rounded=0;whiteSpace=wrap;html=1;labelPosition=center;verticalLabelPosition=middle;align=center;verticalAlign=middle;" vertex="1" parent="1">
          <mxGeometry x="40" y="890" width="70" height="70" as="geometry" />
        </mxCell>
        <mxCell id="Ln4z_vQVc0nFOdkqBioS-82" value="&lt;div style=&quot;font-size: 18px;&quot;&gt;Process Message&lt;/div&gt;" style="rounded=0;whiteSpace=wrap;html=1;labelPosition=center;verticalLabelPosition=middle;align=center;verticalAlign=middle;fillColor=#ffe6cc;strokeColor=#d79b00;" vertex="1" parent="1">
          <mxGeometry x="110" y="890" width="80" height="70" as="geometry" />
        </mxCell>
        <mxCell id="Ln4z_vQVc0nFOdkqBioS-83" value="&lt;div style=&quot;font-size: 18px;&quot;&gt;Idle&lt;/div&gt;" style="rounded=0;whiteSpace=wrap;html=1;labelPosition=center;verticalLabelPosition=middle;align=center;verticalAlign=middle;fillColor=#ffe6cc;strokeColor=#d79b00;gradientColor=#BAA995;gradientDirection=east;" vertex="1" parent="1">
          <mxGeometry x="190" y="890" width="50" height="70" as="geometry" />
        </mxCell>
        <mxCell id="Ln4z_vQVc0nFOdkqBioS-84" value="&lt;div style=&quot;font-size: 18px;&quot;&gt;Server Shutdown&lt;/div&gt;" style="rounded=0;whiteSpace=wrap;html=1;labelPosition=center;verticalLabelPosition=middle;align=center;verticalAlign=middle;" vertex="1" parent="1">
          <mxGeometry x="240" y="890" width="90" height="70" as="geometry" />
        </mxCell>
        <mxCell id="Ln4z_vQVc0nFOdkqBioS-85" value="&lt;div style=&quot;font-size: 18px;&quot;&gt;Server Startup&lt;/div&gt;" style="rounded=0;whiteSpace=wrap;html=1;labelPosition=center;verticalLabelPosition=middle;align=center;verticalAlign=middle;" vertex="1" parent="1">
          <mxGeometry x="400" y="890" width="70" height="70" as="geometry" />
        </mxCell>
        <mxCell id="Ln4z_vQVc0nFOdkqBioS-87" value="&lt;div style=&quot;font-size: 18px;&quot;&gt;Idle&lt;/div&gt;" style="rounded=0;whiteSpace=wrap;html=1;labelPosition=center;verticalLabelPosition=middle;align=center;verticalAlign=middle;fillColor=#ffe6cc;strokeColor=#d79b00;gradientColor=#BAA995;gradientDirection=east;" vertex="1" parent="1">
          <mxGeometry x="550" y="890" width="30" height="70" as="geometry" />
        </mxCell>
        <mxCell id="Ln4z_vQVc0nFOdkqBioS-88" value="&lt;div style=&quot;font-size: 18px;&quot;&gt;Server Shutdown&lt;/div&gt;" style="rounded=0;whiteSpace=wrap;html=1;labelPosition=center;verticalLabelPosition=middle;align=center;verticalAlign=middle;" vertex="1" parent="1">
          <mxGeometry x="860" y="890" width="90" height="70" as="geometry" />
        </mxCell>
        <mxCell id="Ln4z_vQVc0nFOdkqBioS-89" value="&lt;div style=&quot;font-size: 18px;&quot;&gt;Process Message&lt;/div&gt;" style="rounded=0;whiteSpace=wrap;html=1;labelPosition=center;verticalLabelPosition=middle;align=center;verticalAlign=middle;fillColor=#ffe6cc;strokeColor=#d79b00;" vertex="1" parent="1">
          <mxGeometry x="470" y="890" width="80" height="70" as="geometry" />
        </mxCell>
        <mxCell id="Ln4z_vQVc0nFOdkqBioS-94" style="edgeStyle=orthogonalEdgeStyle;rounded=0;orthogonalLoop=1;jettySize=auto;html=1;exitX=1;exitY=0.5;exitDx=0;exitDy=0;entryX=0;entryY=0.5;entryDx=0;entryDy=0;dashed=1;dashPattern=1 1;endArrow=none;endFill=0;" edge="1" parent="1" source="Ln4z_vQVc0nFOdkqBioS-91" target="Ln4z_vQVc0nFOdkqBioS-93">
          <mxGeometry relative="1" as="geometry" />
        </mxCell>
        <mxCell id="Ln4z_vQVc0nFOdkqBioS-91" value="&lt;div style=&quot;font-size: 18px;&quot;&gt;Process Message&lt;/div&gt;" style="rounded=0;whiteSpace=wrap;html=1;labelPosition=center;verticalLabelPosition=middle;align=center;verticalAlign=middle;fillColor=#ffe6cc;strokeColor=#d79b00;" vertex="1" parent="1">
          <mxGeometry x="580" y="890" width="80" height="70" as="geometry" />
        </mxCell>
        <mxCell id="Ln4z_vQVc0nFOdkqBioS-95" style="edgeStyle=orthogonalEdgeStyle;rounded=0;orthogonalLoop=1;jettySize=auto;html=1;exitX=1;exitY=0.5;exitDx=0;exitDy=0;entryX=0;entryY=0.5;entryDx=0;entryDy=0;endArrow=none;endFill=0;dashed=1;dashPattern=1 1;" edge="1" parent="1" source="Ln4z_vQVc0nFOdkqBioS-93" target="Ln4z_vQVc0nFOdkqBioS-101">
          <mxGeometry relative="1" as="geometry" />
        </mxCell>
        <mxCell id="Ln4z_vQVc0nFOdkqBioS-93" value="&lt;div style=&quot;font-size: 18px;&quot;&gt;(more messages)&lt;/div&gt;" style="rounded=0;whiteSpace=wrap;html=1;labelPosition=center;verticalLabelPosition=middle;align=center;verticalAlign=middle;fillColor=#ffe6cc;strokeColor=#d79b00;" vertex="1" parent="1">
          <mxGeometry x="680" y="890" width="100" height="70" as="geometry" />
        </mxCell>
        <mxCell id="Ln4z_vQVc0nFOdkqBioS-96" value="" style="endArrow=classic;html=1;rounded=0;entryX=0;entryY=0;entryDx=0;entryDy=0;exitX=0;exitY=0.75;exitDx=0;exitDy=0;endFill=1;strokeWidth=2;dashed=1;" edge="1" parent="1" source="Ln4z_vQVc0nFOdkqBioS-46" target="Ln4z_vQVc0nFOdkqBioS-25">
          <mxGeometry width="50" height="50" relative="1" as="geometry">
            <mxPoint x="490" y="780" as="sourcePoint" />
            <mxPoint x="540" y="730" as="targetPoint" />
          </mxGeometry>
        </mxCell>
        <mxCell id="Ln4z_vQVc0nFOdkqBioS-98" value="" style="endArrow=classic;html=1;rounded=0;entryX=1;entryY=0;entryDx=0;entryDy=0;exitX=0.136;exitY=0.968;exitDx=0;exitDy=0;endFill=1;strokeWidth=2;dashed=1;exitPerimeter=0;" edge="1" parent="1" source="Ln4z_vQVc0nFOdkqBioS-46" target="Ln4z_vQVc0nFOdkqBioS-83">
          <mxGeometry width="50" height="50" relative="1" as="geometry">
            <mxPoint x="360" y="768" as="sourcePoint" />
            <mxPoint x="50" y="900" as="targetPoint" />
          </mxGeometry>
        </mxCell>
        <mxCell id="Ln4z_vQVc0nFOdkqBioS-99" value="" style="endArrow=classic;html=1;rounded=0;entryX=0;entryY=0;entryDx=0;entryDy=0;exitX=0.549;exitY=1.032;exitDx=0;exitDy=0;endFill=1;strokeWidth=2;dashed=1;exitPerimeter=0;" edge="1" parent="1" source="Ln4z_vQVc0nFOdkqBioS-46" target="Ln4z_vQVc0nFOdkqBioS-85">
          <mxGeometry width="50" height="50" relative="1" as="geometry">
            <mxPoint x="405" y="780" as="sourcePoint" />
            <mxPoint x="280" y="900" as="targetPoint" />
          </mxGeometry>
        </mxCell>
        <mxCell id="Ln4z_vQVc0nFOdkqBioS-100" value="" style="endArrow=classic;html=1;rounded=0;entryX=0;entryY=0;entryDx=0;entryDy=0;exitX=0.893;exitY=1;exitDx=0;exitDy=0;endFill=1;strokeWidth=2;dashed=1;exitPerimeter=0;" edge="1" parent="1" source="Ln4z_vQVc0nFOdkqBioS-46" target="Ln4z_vQVc0nFOdkqBioS-88">
          <mxGeometry width="50" height="50" relative="1" as="geometry">
            <mxPoint x="411" y="778" as="sourcePoint" />
            <mxPoint x="410" y="900" as="targetPoint" />
          </mxGeometry>
        </mxCell>
        <mxCell id="Ln4z_vQVc0nFOdkqBioS-101" value="&lt;div style=&quot;font-size: 18px;&quot;&gt;Idle&lt;/div&gt;" style="rounded=0;whiteSpace=wrap;html=1;labelPosition=center;verticalLabelPosition=middle;align=center;verticalAlign=middle;fillColor=#ffe6cc;strokeColor=#d79b00;gradientColor=#BAA995;gradientDirection=east;" vertex="1" parent="1">
          <mxGeometry x="810" y="890" width="50" height="70" as="geometry" />
        </mxCell>
        <mxCell id="Ln4z_vQVc0nFOdkqBioS-102" value="Container stopped when queue depth drops" style="text;html=1;align=center;verticalAlign=middle;whiteSpace=wrap;rounded=0;" vertex="1" parent="1">
          <mxGeometry x="287" y="830" width="73" height="30" as="geometry" />
        </mxCell>
        <mxCell id="Ln4z_vQVc0nFOdkqBioS-103" value="Container started again when more messages arrive" style="text;html=1;align=center;verticalAlign=middle;whiteSpace=wrap;rounded=0;" vertex="1" parent="1">
          <mxGeometry x="390" y="800" width="120" height="30" as="geometry" />
        </mxCell>
        <mxCell id="Ln4z_vQVc0nFOdkqBioS-104" value="Container continues processing messages without long idle time" style="text;html=1;align=center;verticalAlign=middle;whiteSpace=wrap;rounded=0;" vertex="1" parent="1">
          <mxGeometry x="520" y="860" width="190" height="30" as="geometry" />
        </mxCell>
        <mxCell id="Ln4z_vQVc0nFOdkqBioS-106" value="Container stopped when all messages processed" style="text;html=1;align=center;verticalAlign=middle;whiteSpace=wrap;rounded=0;" vertex="1" parent="1">
          <mxGeometry x="655" y="800" width="150" height="30" as="geometry" />
        </mxCell>
      </root>
    </mxGraphModel>
  </diagram>
</mxfile>
